<?xml version="1.0" encoding="utf-8"?>
<!-- Uploaded to: SVG Repo, www.svgrepo.com, Generator: SVG Repo Mixer Tools -->
<svg width="800px" height="800px" viewBox="0 0 1024 1024" class="icon"  version="1.1" xmlns="http://www.w3.org/2000/svg"><path d="M512 512m-512 0a512 512 0 1 0 1024 0 512 512 0 1 0-1024 0Z" fill="#DAE2E5" /><path d="M512 192C335.296 192 192 335.296 192 512s143.296 320 320 320 320-143.296 320-320S688.704 192 512 192z m0 608c-159.072 0-288-128.928-288-288s128.928-288 288-288 288 128.928 288 288-128.928 288-288 288z" fill="#FFFFFF" /><path d="M874.016 376.256c44.864 3.904 84.576 13.728 135.776 45.248-22.624-22.624-80.832-56.736-154.592-63.232-88.064-7.68-161.952 14.592-164.96 49.824a27.808 27.808 0 0 0 2.016 12.704c41.952-23.136 102.624-51.488 181.76-44.544zM602.496 14.176c30.112 52.672 41.344 90.944 45.248 135.776 6.944 79.2-21.472 139.808-44.608 181.76a27.648 27.648 0 0 0 12.736 2.016c35.2-3.104 57.504-76.928 49.824-164.96-6.464-73.76-40.576-131.968-63.2-154.592z" fill="#434854" /><path d="M964.576 512c-37.504 37.504-88.16 47.616-113.152 22.624s-14.88-75.616 22.624-113.12c1.824-1.824 3.808-3.296 5.664-4.96a95.264 95.264 0 0 0-73.536 27.584 95.136 95.136 0 0 0-26.784 54.016 240.576 240.576 0 0 0-81.728-2.464c47.04-72.832 56.768-148.544 18.016-187.328-38.784-38.752-114.464-28.992-187.328 18.016a247.36 247.36 0 0 0 2.4-32.896c0-17.312-1.76-33.792-4.864-48.832a95.232 95.232 0 0 0 54.016-26.784 95.264 95.264 0 0 0 27.584-73.536c-1.696 1.856-3.168 3.84-4.96 5.664-37.504 37.504-88.128 47.616-113.12 22.624s-14.912-75.68 22.592-113.184c1.824-1.824 3.808-3.264 5.664-4.928a95.264 95.264 0 0 0-73.536 27.584 95.584 95.584 0 0 0-17.024 111.68c-14.72 23.424-24.352 59.168-24.32 99.68 0.032 49.632 14.272 92.192 34.912 113.44-104 114.336-174.016 249.44-162.304 309.888a95.84 95.84 0 0 0-117.792 13.856c-2.624 2.624-4.608 5.6-6.848 8.448a127.04 127.04 0 0 1 97.376 36.8 127.04 127.04 0 0 1 36.8 97.376c2.848-2.24 5.824-4.224 8.448-6.848 32-32 36.448-80.8 13.856-117.792 60.448 11.712 195.52-58.304 309.856-162.304 21.248 20.672 63.84 34.944 113.472 34.912 40.576 0.032 76.288-9.6 99.712-24.288a95.68 95.68 0 0 0 111.68-17.056 95.36 95.36 0 0 0 27.552-73.536c-1.696 1.856-3.136 3.84-4.928 5.664z" fill="#EF4D4D" /><path d="M720.672 493.984c15.584-35.456 21.6-69.504 16.864-97.888-4.608 31.2-17.984 65.6-39.936 99.552 7.424-0.992 15.264-1.312 23.072-1.664zM530.24 325.28c-0.192-4.992-0.256-10.048-0.736-14.88-0.416 5.312-0.48 10.848-1.152 15.968 0.608-0.384 1.28-0.672 1.888-1.088zM479.264 155.52A126.176 126.176 0 0 1 512 101.12c1.824-1.824 3.808-3.264 5.664-4.928a97.632 97.632 0 0 0-33.728 4.288c-8.544 19.776-10.272 39.328-4.672 55.04zM841.28 517.568c5.152-18.464 16.064-37.696 32.736-54.368 1.824-1.824 3.808-3.296 5.664-4.96a97.376 97.376 0 0 0-33.696 4.288c-8.544 19.744-10.336 39.328-4.704 55.04zM525.888 244.64c2.624 12.64 4 26.4 4.48 40.672a94.336 94.336 0 0 0 49.536-25.792 95.264 95.264 0 0 0 27.584-73.536c-1.696 1.856-3.168 3.84-4.96 5.664-2.656 2.656-5.472 4.832-8.256 7.232-3.968 6.72-8.576 13.184-14.368 18.976a95.52 95.52 0 0 1-54.016 26.784zM293.376 866.4c-2.624 2.624-5.6 4.608-8.448 6.848a127.04 127.04 0 0 0-36.8-97.376 125.184 125.184 0 0 0-44.8-28.736 94.72 94.72 0 0 0-45.728 25.184c-2.624 2.624-4.608 5.6-6.848 8.448a127.04 127.04 0 0 1 97.376 36.8 127.04 127.04 0 0 1 36.8 97.376c2.848-2.24 5.824-4.224 8.448-6.848a95.36 95.36 0 0 0 25.504-88.96 94.496 94.496 0 0 1-25.504 47.264zM427.104 193.792a97.728 97.728 0 0 1-8.256-23.488 96.128 96.128 0 0 0-0.32 40.416c2.624-6.08 5.408-11.936 8.576-16.928zM956.288 560.928a93.76 93.76 0 0 1-14.336 18.944 95.68 95.68 0 0 1-111.68 17.056c-23.424 14.688-59.168 24.32-99.712 24.288-49.632 0.032-92.224-14.24-113.472-34.912-114.304 104-249.408 174.016-309.856 162.304 8.064 13.216 12.544 27.936 13.696 42.88 65.472 0.576 189.792-66.72 296.16-163.488 21.248 20.672 63.84 34.944 113.472 34.912 40.576 0.032 76.288-9.6 99.712-24.288a95.68 95.68 0 0 0 111.68-17.056 95.36 95.36 0 0 0 27.552-73.536c-1.696 1.856-3.136 3.84-4.928 5.664-2.656 2.656-5.504 4.832-8.288 7.232zM437.696 406.912c-17.44-17.952-30.176-51.2-33.792-90.976-0.512 6.336-1.12 12.608-1.12 19.232 0.032 35.328 7.328 66.88 18.912 89.888 5.248-6.08 10.56-12.192 16-18.144z" fill="" /><path d="M525.888 244.64a95.616 95.616 0 0 1-81.76-26.784 94.176 94.176 0 0 1-17.024-24.064 141.44 141.44 0 0 0-15.264 34.88c3.168 4 5.984 8.16 9.664 11.808a127.36 127.36 0 0 0 108.384 35.776 240.832 240.832 0 0 0-4-31.616zM806.144 579.872a95.552 95.552 0 0 1-26.784-81.76 242.24 242.24 0 0 0-31.616-4 127.36 127.36 0 0 0 35.776 108.384c3.648 3.68 7.808 6.496 11.808 9.664a141.152 141.152 0 0 0 34.912-15.232 95.264 95.264 0 0 1-24.096-17.056zM730.528 493.248c-11.456 0-22.336 0.96-32.896 2.4a374.4 374.4 0 0 1-49.888 61.6c-9.984 9.984-20.256 19.648-30.656 29.088 7.072 6.848 16.288 12.96 27.552 18.08 8.928-8.224 17.6-16.416 25.76-24.576a395.712 395.712 0 0 0 65.856-86.304c-1.952-0.032-3.744-0.288-5.728-0.288zM530.752 293.472c0-1.984-0.256-3.776-0.32-5.728a394.72 394.72 0 0 0-86.304 65.856c-8.128 8.16-16.352 16.768-24.544 25.696 5.12 11.328 11.232 20.576 18.08 27.584 9.44-10.4 19.072-20.672 29.056-30.624a374.912 374.912 0 0 1 61.632-49.888c1.44-10.56 2.4-21.44 2.4-32.896zM345.568 526.592l151.84 151.84c8.96-5.792 18.016-11.808 27.104-18.144l-160.768-160.768c-6.368 9.056-12.416 18.112-18.176 27.072zM297.536 614.304l112.16 112.16c9.856-4.32 20.096-9.344 30.496-14.752l-127.904-127.904c-5.408 10.4-10.432 20.672-14.752 30.496zM285.728 738.272c11.136 11.104 30.464 13.952 55.296 10.016l-65.312-65.312c-3.936 24.832-1.088 44.192 10.016 55.296z" fill="" /><path d="M688 272m-16 0a16 16 0 1 0 32 0 16 16 0 1 0-32 0Z" fill="#434854" /><path d="M752 336m-16 0a16 16 0 1 0 32 0 16 16 0 1 0-32 0Z" fill="#434854" /></svg>